<svg width="22" height="22" viewBox="0 0 22 22" fill="none" xmlns="http://www.w3.org/2000/svg">
<path fill-rule="evenodd" clip-rule="evenodd" d="M11 22C17.0751 22 22 17.0751 22 11C22 4.92487 17.0751 0 11 0C4.92487 0 0 4.92487 0 11C0 17.0751 4.92487 22 11 22ZM14.0051 7.73473C14.0963 7.68859 14.1958 7.66102 14.2977 7.65358C14.5007 7.63855 14.7016 7.70425 14.8565 7.83632C15.0116 7.97029 15.1072 8.16039 15.1222 8.36482C15.1372 8.56924 15.0704 8.77126 14.9365 8.92645L9.84674 14.8391C9.77663 14.9205 9.69032 14.9864 9.59332 15.0326C9.49631 15.0788 9.39074 15.1043 9.28333 15.1074C9.17593 15.1106 9.06906 15.0913 8.96953 15.0508C8.87 15.0103 8.78 14.9495 8.70528 14.8723L5.99356 12.0715C5.85112 11.9251 5.77243 11.7282 5.77467 11.524C5.77692 11.3197 5.85992 11.1246 6.00554 10.9814C6.07807 10.9098 6.16402 10.8533 6.25845 10.8151C6.35289 10.7769 6.45394 10.7578 6.55581 10.7587C6.65767 10.7597 6.75834 10.7808 6.85202 10.8208C6.94571 10.8608 7.03056 10.919 7.1017 10.9919L9.2291 13.1887L13.7662 7.92234C13.8327 7.84462 13.9138 7.78086 14.0051 7.73473Z" fill="#1DBDD5"/>
</svg>
