<svg width="9" height="15" viewBox="0 0 9 15" fill="none" xmlns="http://www.w3.org/2000/svg">
<path d="M8.20834 7.28584C8.20814 7.05655 8.11689 6.83672 7.95465 6.67469L1.49757 0.27526C1.4184 0.19029 1.32292 0.122138 1.21683 0.0748694C1.11074 0.0276006 0.996222 0.0021834 0.880099 0.000134556C0.763976 -0.00191429 0.648631 0.0194468 0.540943 0.0629438C0.433255 0.106441 0.335431 0.171182 0.253307 0.253306C0.171183 0.33543 0.106441 0.433254 0.0629441 0.540943C0.0194471 0.648631 -0.00191422 0.763976 0.000134631 0.880099C0.00218349 0.996222 0.0276007 1.11074 0.0748695 1.21683C0.122138 1.32292 0.190291 1.41839 0.27526 1.49757L6.10966 7.3435L0.206074 13.2471C0.104578 13.4156 0.0635568 13.6137 0.0897791 13.8086C0.116001 14.0036 0.2079 14.1837 0.350312 14.3194C0.492724 14.4551 0.67714 14.5382 0.873132 14.555C1.06912 14.5718 1.26498 14.5212 1.42838 14.4117L7.94312 7.897C8.02554 7.81772 8.09142 7.72289 8.13694 7.61798C8.18247 7.51308 8.20673 7.40019 8.20834 7.28584Z" fill="white"/>
</svg>
