<svg width="9" height="15" viewBox="0 0 9 15" fill="none" xmlns="http://www.w3.org/2000/svg">
<path d="M0.79166 7.28584C0.791862 7.05655 0.883113 6.83672 1.04535 6.67469L7.50243 0.27526C7.5816 0.19029 7.67708 0.122138 7.78317 0.0748694C7.88926 0.0276006 8.00378 0.0021834 8.1199 0.000134556C8.23602 -0.00191429 8.35137 0.0194468 8.45906 0.0629438C8.56675 0.106441 8.66457 0.171182 8.74669 0.253306C8.82882 0.33543 8.89356 0.433254 8.93706 0.540943C8.98055 0.648631 9.00191 0.763976 8.99987 0.880099C8.99782 0.996222 8.9724 1.11074 8.92513 1.21683C8.87786 1.32292 8.80971 1.41839 8.72474 1.49757L2.89034 7.3435L8.79393 13.2471C8.89542 13.4156 8.93644 13.6137 8.91022 13.8086C8.884 14.0036 8.7921 14.1837 8.64969 14.3194C8.50728 14.4551 8.32286 14.5382 8.12687 14.555C7.93088 14.5718 7.73502 14.5212 7.57162 14.4117L1.05688 7.897C0.974461 7.81772 0.908582 7.72289 0.863058 7.61798C0.817533 7.51308 0.793266 7.40019 0.79166 7.28584Z" fill="white"/>
</svg>
