<svg width="18" height="21" viewBox="0 0 18 21" fill="none" xmlns="http://www.w3.org/2000/svg">
<path d="M11.1875 15.8881C11.1875 15.6161 11.408 15.3956 11.68 15.3956C11.9519 15.3956 12.1724 15.6161 12.1724 15.8881V18.1226C12.1724 18.9152 11.849 19.6346 11.3283 20.1559C10.807 20.6773 10.0876 21 9.29497 21H2.8774C2.08476 21 1.36541 20.6766 0.844063 20.1559C0.322711 19.6352 0 18.9152 0 18.1226V2.8774C0 2.08476 0.323354 1.36541 0.844063 0.844063C1.36541 0.323354 2.08476 0 2.8774 0H9.29497C10.0876 0 10.807 0.323354 11.3283 0.844063C11.8497 1.36541 12.1724 2.08476 12.1724 2.8774V5.11195C12.1724 5.38387 11.9519 5.60437 11.68 5.60437C11.408 5.60437 11.1875 5.38387 11.1875 5.11195V2.8774C11.1875 2.35669 10.9747 1.88355 10.6315 1.54027C10.2888 1.19763 9.81504 0.984204 9.29433 0.984204H2.87676C2.3554 0.984204 1.88291 1.19699 1.53963 1.54027C1.19699 1.88355 0.983561 2.35669 0.983561 2.8774V18.1226C0.983561 18.6433 1.19634 19.1164 1.53963 19.4597C1.88291 19.8024 2.35605 20.0152 2.87676 20.0152H9.29433C9.81568 20.0152 10.2888 19.8024 10.6315 19.4597C10.9747 19.1164 11.1875 18.6433 11.1875 18.1226V15.8881ZM16.4743 10.9921H7.98163C7.70971 10.9921 7.48921 10.7716 7.48921 10.4997C7.48921 10.2278 7.70971 10.0073 7.98163 10.0073H16.4743C16.3933 9.69933 16.2352 9.40812 16.0005 9.16383L13.8219 6.901C13.6342 6.70557 13.64 6.39508 13.8354 6.20672C14.0309 6.01901 14.3414 6.0248 14.5297 6.22022L16.7083 8.48306C17.2509 9.04683 17.5222 9.77326 17.5222 10.4997C17.5222 11.2255 17.2509 11.9519 16.7083 12.5163L14.5297 14.7791C14.3414 14.9746 14.0309 14.9803 13.8354 14.7926C13.64 14.6049 13.6342 14.2938 13.8219 14.0984L16.0005 11.8355C16.2358 11.5912 16.394 11.3 16.4743 10.9921Z" fill="#1F1E25"/>
</svg>
