<svg width="24" height="24" viewBox="0 0 24 24" fill="none" xmlns="http://www.w3.org/2000/svg">
<path d="M19.7773 19.7812C19.1871 20.3684 18.2461 20.4122 17.335 20.4521C16.723 20.478 16.085 20.5069 15.6035 20.7073M19.7773 19.7812L19.8759 19.8806M19.7773 19.7812C20.3669 19.1956 20.408 18.2549 20.4478 17.3459L20.4481 17.339L19.8759 19.8806M19.7773 19.7812L19.876 19.8805C19.876 19.8805 19.8759 19.8805 19.8759 19.8806M19.8759 19.8806C19.5548 20.2 19.1432 20.3664 18.7055 20.4589C18.2693 20.551 17.7944 20.5721 17.3412 20.592L17.341 20.592C16.7214 20.6182 16.1111 20.6477 15.6573 20.8365M15.6573 20.8365C15.6574 20.8365 15.6576 20.8364 15.6577 20.8364L15.6035 20.7073M15.6573 20.8365L15.6035 20.7073M15.6573 20.8365C15.2334 21.0145 14.8177 21.3923 14.357 21.8197L14.3564 21.8203L14.3345 21.8404C14.0027 22.1445 13.6539 22.4642 13.2792 22.7083C12.8945 22.9589 12.4722 23.137 11.998 23.137C11.5239 23.137 11.1018 22.9598 10.717 22.7085C10.334 22.4584 9.97815 22.1281 9.63897 21.8127M15.6035 20.7073C15.152 20.8967 14.7173 21.2944 14.2618 21.7171L14.2437 21.7336C13.5684 22.3526 12.8655 22.997 11.998 22.997C11.1228 22.997 10.416 22.3441 9.73419 21.7101M9.63897 21.8127L9.73419 21.7101M9.63897 21.8127C9.63893 21.8127 9.63889 21.8126 9.63885 21.8126L9.73419 21.7101M9.63897 21.8127C9.17775 21.3848 8.76636 21.0074 8.33871 20.8296L8.33867 20.8296C7.89015 20.6429 7.29326 20.6149 6.67619 20.586L6.65484 20.585L6.66096 20.4451M9.73419 21.7101C9.27863 21.2874 8.848 20.8897 8.39246 20.7003C7.92095 20.5041 7.30315 20.4752 6.69918 20.4469L6.66096 20.4451M6.66096 20.4451L6.6544 20.585M6.66096 20.4451L6.65404 20.4448C5.74508 20.405 4.80438 20.3639 4.21874 19.7743C3.6316 19.1841 3.58773 18.2431 3.54787 17.332L6.6544 20.585M6.6544 20.585L6.64187 20.5844C6.19282 20.5648 5.722 20.5442 5.2896 20.4534C4.85144 20.3614 4.43937 20.195 4.11949 19.873M6.6544 20.585L4.11949 19.873M4.11949 19.873C3.79997 19.5519 3.63358 19.1402 3.5411 18.7024C3.44895 18.2663 3.42784 17.7914 3.40801 17.3381L3.408 17.3379C3.38177 16.7185 3.35228 16.1083 3.16349 15.6545C2.98558 15.2305 2.6077 14.8147 2.18028 14.354L2.17985 14.3536L2.15636 14.328C1.85187 13.997 1.53278 13.65 1.28916 13.2775C1.0381 12.8936 0.86 12.4723 0.86 11.998C0.86 11.5239 1.03722 11.1018 1.28849 10.717C1.53863 10.334 1.8689 9.97815 2.18428 9.63897C2.61217 9.17775 2.98962 8.76636 3.16742 8.33871L3.16744 8.33867C3.35409 7.89015 3.38208 7.29325 3.41101 6.67618L3.41201 6.65484C3.43185 6.2016 3.45297 5.726 3.54511 5.28945C3.63757 4.85139 3.80397 4.43952 4.12375 4.11974L4.22274 4.21874L4.12375 4.11974C4.44353 3.79996 4.8554 3.63356 5.29346 3.54109C5.73001 3.44895 6.20561 3.42783 6.65885 3.40801L6.65904 3.408C7.27819 3.38178 7.8857 3.35232 8.34265 3.16344C8.76662 2.98551 9.18234 2.60765 9.64297 2.18028C9.98024 1.86631 10.3353 1.53707 10.718 1.28755C11.1024 1.03692 11.5245 0.86 11.998 0.86C12.4722 0.86 12.8935 1.03725 13.2779 1.28853C13.6575 1.53664 14.0107 1.8637 14.3488 2.17663L14.3569 2.18418L14.357 2.18428C14.8182 2.61217 15.2296 2.98962 15.6573 3.16742L15.6573 3.16744C16.1111 3.35628 16.7175 3.38578 17.3409 3.412L17.3412 3.41201L17.3541 3.41258C17.8032 3.43222 18.274 3.45282 18.7064 3.54358C19.1446 3.63555 19.5567 3.80203 19.8766 4.12408C20.1961 4.44521 20.3624 4.85683 20.4549 5.29455C20.547 5.73074 20.5682 6.2056 20.588 6.65885L20.588 6.65904C20.6142 7.27857 20.6437 7.88888 20.8326 8.34268L20.8326 8.34272C21.0104 8.77035 21.3878 9.18171 21.8156 9.64286C21.8156 9.6429 21.8157 9.64294 21.8157 9.64297L4.11949 19.873ZM3.76116 8.58898L3.76112 8.58908C3.54162 9.12333 3.0903 9.60937 2.67415 10.0575L2.65488 10.0783L2.65465 10.0785L2.65221 10.0812C2.36027 10.3971 2.07254 10.7085 1.85634 11.0302C1.6399 11.3522 1.50484 11.6708 1.50484 11.9979C1.50484 12.3249 1.63991 12.6438 1.85647 12.9661C2.07339 13.2889 2.36242 13.6014 2.65565 13.9182L3.76116 8.58898ZM3.76116 8.58898C3.99269 8.0242 4.02352 7.3362 4.05193 6.70193L4.0526 6.68711C4.0526 6.68709 4.0526 6.68707 4.0526 6.68706M3.76116 8.58898L4.0526 6.68706M4.0526 6.68706C4.07265 6.24325 4.09164 5.82616 4.16443 5.4594M4.0526 6.68706L4.16443 5.4594M4.16443 5.4594C4.23702 5.0937 4.36027 4.79445 4.57692 4.57779L4.16443 5.4594ZM2.67078 13.9345L2.65579 13.9183L10.0777 2.65552C10.3945 2.36229 10.707 2.07327 11.0298 1.85634C11.352 1.63978 11.6709 1.50471 11.998 1.50471C12.3256 1.50471 12.6444 1.63978 12.9654 1.85654C13.287 2.07367 13.5977 2.36339 13.9107 2.65787L13.9107 2.65788L13.9118 2.65891C13.9247 2.67077 13.9376 2.68266 13.9505 2.69457C14.3971 3.10583 14.8776 3.54838 15.4048 3.76497L15.4049 3.76502C15.9697 3.99655 16.6576 4.02737 17.2919 4.05579L17.3068 4.05645L17.3074 4.05648C17.7509 4.07452 18.168 4.09256 18.5346 4.16484C18.9001 4.2369 19.1992 4.36009 19.4159 4.57662C19.6306 4.79322 19.7529 5.09248 19.825 5.45823C19.8974 5.82509 19.9163 6.24228 19.9364 6.68606C19.9364 6.68608 19.9364 6.6861 19.9364 6.68611L19.9375 6.70952C19.9657 7.34109 19.9964 8.02492 20.231 8.58851C20.4523 9.12437 20.9048 9.61167 21.3222 10.0612L21.3372 10.0774C21.3372 10.0774 21.3373 10.0775 21.3373 10.0775C21.6306 10.3943 21.9196 10.7068 22.1365 11.0296C22.3531 11.3519 22.4881 11.6708 22.4881 11.9979C22.4881 12.3249 22.3531 12.6435 22.1365 12.9657C21.9201 13.2876 21.632 13.5993 21.3394 13.9159L21.3373 13.9182L21.3371 13.9184L21.3178 13.9392C20.9017 14.3873 20.4505 14.8733 20.231 15.4074C19.9963 15.9724 19.9655 16.6606 19.9371 17.2946L19.9364 17.3097L19.9364 17.3102C19.9183 17.7538 19.9003 18.1709 19.828 18.5375C19.756 18.903 19.6328 19.2021 19.4162 19.4187C19.1996 19.6334 18.9004 19.7558 18.5346 19.8279C18.1679 19.9002 17.7509 19.9192 17.3072 19.9392C16.6686 19.9649 15.975 19.9933 15.4043 20.2309C14.8685 20.4522 14.3812 20.9046 13.9316 21.3221L13.9155 21.3371C13.9154 21.3371 13.9154 21.3372 13.9153 21.3372C13.5985 21.6304 13.286 21.9195 12.9632 22.1364C12.6409 22.353 12.3221 22.488 11.995 22.488C11.6679 22.488 11.3493 22.353 11.0272 22.1364C10.7053 21.92 10.3935 21.6319 10.077 21.3393L10.0747 21.3372L10.0744 21.337L10.0537 21.3177C9.60552 20.9016 9.11948 20.4502 8.58523 20.2307L8.58512 20.2307C8.02034 19.9992 7.33235 19.9683 6.69807 19.9399L6.6832 19.9393L6.68262 19.9392C6.23906 19.9212 5.82197 19.9032 5.45537 19.8309C5.08991 19.7588 4.79075 19.6356 4.57412 19.4191C4.35941 19.2025 4.23709 18.9032 4.16498 18.5375C4.09266 18.1707 4.07366 17.7536 4.05361 17.3099C4.02795 16.6717 3.99961 15.9739 3.76187 15.407C3.54057 14.8712 3.08816 14.384 2.67078 13.9345ZM10.0762 2.65686L10.0775 2.65566L4.57692 4.57779C4.79358 4.36115 5.09283 4.2379 5.45853 4.16531C5.82521 4.09253 6.24219 4.07354 6.68589 4.05348C7.32421 4.02782 8.02214 3.99948 8.58907 3.76163C9.13031 3.53506 9.62196 3.0786 10.0762 2.65686Z" fill="#1F1E25" stroke="#1F1E25" stroke-width="0.28"/>
<path d="M5.08021 11.9981V11.9981C5.08021 15.8127 8.1832 18.9156 11.9977 18.9156C15.8123 18.9156 18.9153 15.8127 18.9153 11.9981C18.9153 8.18494 15.8124 5.07777 11.9977 5.07777C8.18411 5.07777 5.08123 8.18469 5.08021 11.9981ZM11.9977 18.271C8.53933 18.271 5.72613 15.4538 5.72513 11.9953V11.9953C5.72515 8.53597 8.53944 5.72269 11.9977 5.72269C15.457 5.72269 18.2704 8.53996 18.2704 11.9984C18.2704 15.4577 15.4563 18.271 11.9977 18.271Z" fill="#1F1E25" stroke="#1F1E25" stroke-width="0.28"/>
<path d="M10.2622 9.7678L10.2622 9.76779C10.0952 9.60077 9.90157 9.52072 9.66441 9.52072C9.43112 9.52072 9.23755 9.60086 9.0746 9.76381L9.07357 9.76484L9.07356 9.76484C8.90776 9.92723 8.82752 10.1211 8.82752 10.3576C8.82752 10.5907 8.90748 10.7837 9.07356 10.9464L9.0746 10.9474L9.0746 10.9474C9.24206 11.1149 9.43584 11.1945 9.66441 11.1945C9.90111 11.1945 10.0989 11.1107 10.2622 10.9474L10.2622 9.7678ZM10.2622 9.7678L10.2632 9.76882M10.2622 9.7678L10.2632 9.76882M10.2632 9.76882C10.4291 9.93126 10.5093 10.1282 10.5093 10.3576C10.5093 10.5862 10.4297 10.7799 10.2622 10.9474L10.2632 9.76882ZM14.3315 11.8475C13.8353 11.8475 13.4089 12.0224 13.0584 12.3727C12.7078 12.7203 12.5327 13.1459 12.5327 13.6382C12.5327 14.1311 12.7081 14.5534 13.0582 14.9035L13.0583 14.9037C13.4097 15.2539 13.835 15.429 14.3315 15.429C14.8242 15.429 15.2465 15.2537 15.5965 14.9038C15.9472 14.5562 16.1222 14.1306 16.1222 13.6382C16.1222 13.1454 15.9468 12.7231 15.5967 12.373L15.5963 12.3725C15.2469 12.0264 14.821 11.8465 14.3315 11.8475ZM14.3315 11.8475V11.9875M14.3315 11.8475C14.3314 11.8475 14.3313 11.8475 14.3312 11.8475L14.3315 11.9875M14.3315 11.9875C14.783 11.9865 15.1738 12.151 15.4977 12.472C15.8217 12.7959 15.9822 13.1827 15.9822 13.6382C15.9822 14.0938 15.8217 14.4836 15.4977 14.8045L12.6727 13.6382C12.6727 13.1827 12.8332 12.7929 13.1572 12.472C13.4811 12.148 13.8719 11.9875 14.3315 11.9875ZM8.39913 9.08433L8.39897 9.08449C8.04887 9.43567 7.87367 9.86096 7.87367 10.3536C7.87367 10.8463 8.04896 11.2686 8.3989 11.6186C8.74642 11.9693 9.17202 12.1443 9.66441 12.1443C10.1606 12.1443 10.587 11.9694 10.9374 11.6191C11.2881 11.2716 11.4631 10.846 11.4631 10.3536C11.4631 9.86126 11.2881 9.43493 10.938 9.08464C10.5911 8.73355 10.1642 8.55888 9.66441 8.55888C9.17156 8.55888 8.74921 8.73424 8.39913 9.08433ZM13.6427 8.38344H13.5597L13.5199 8.45619L9.714 15.405L9.60048 15.6122H9.83678H10.3651H10.448L10.4879 15.5395L14.2938 8.59069L14.4073 8.38344H14.171H13.6427ZM14.9213 13.0524L14.9223 13.0535C15.0882 13.2159 15.1683 13.4128 15.1683 13.6423C15.1683 13.8706 15.0889 14.0642 14.9218 14.2315C14.7531 14.3966 14.5585 14.4791 14.3315 14.4791C14.0943 14.4791 13.9007 14.3991 13.7337 14.2321L13.7326 14.231C13.5668 14.0686 13.4866 13.8717 13.4866 13.6423C13.4866 13.4137 13.5662 13.2199 13.7337 13.0524C13.9006 12.8855 14.0952 12.8054 14.3315 12.8054C14.56 12.8054 14.7538 12.885 14.9213 13.0524Z" fill="#1F1E25" stroke="#1F1E25" stroke-width="0.28"/>
</svg>
