<svg width="20" height="19" viewBox="0 0 20 19" fill="none" xmlns="http://www.w3.org/2000/svg">
<path fill-rule="evenodd" clip-rule="evenodd" d="M0 0.903125C0 0.404343 0.404343 0 0.903124 0H18.9656C19.4644 0 19.8687 0.404343 19.8687 0.903125C19.8687 1.40191 19.4644 1.80625 18.9656 1.80625H0.903124C0.404343 1.80625 0 1.40191 0 0.903125ZM0 17.9031C0 17.4043 0.404343 17 0.903124 17H18.9656C19.4644 17 19.8687 17.4043 19.8687 17.9031C19.8687 18.4019 19.4644 18.8062 18.9656 18.8062H0.903124C0.404343 18.8062 0 18.4019 0 17.9031ZM0.903124 8.5C0.404343 8.5 0 8.90434 0 9.40312C0 9.90191 0.404343 10.3062 0.903124 10.3062H18.9656C19.4644 10.3062 19.8687 9.90191 19.8687 9.40312C19.8687 8.90434 19.4644 8.5 18.9656 8.5H0.903124Z" fill="#ffffff"/>
</svg>
