<svg width="21" height="11" viewBox="0 0 21 11" fill="none" xmlns="http://www.w3.org/2000/svg">
<path d="M19.2502 0C19.6717 0 20.0142 0.341742 20.0142 0.763916C20.0142 1.18584 19.6717 1.52783 19.2502 1.52783C18.8276 1.52783 18.4863 1.18584 18.4863 0.763916C18.4862 0.341867 18.8276 0 19.2502 0Z" fill="white" fill-opacity="0.8"/>
<path d="M16.94 0C17.3609 0 17.7037 0.341742 17.7037 0.763916C17.7037 1.18584 17.3609 1.52783 16.94 1.52783C16.5174 1.52783 16.1753 1.18584 16.1753 0.763916C16.1753 0.341867 16.5174 0 16.94 0Z" fill="white" fill-opacity="0.8"/>
<path d="M16.94 2.31006C17.3609 2.31006 17.7037 2.65205 17.7037 3.07497C17.7037 3.49665 17.3609 3.83864 16.94 3.83864C16.5174 3.83864 16.1753 3.49665 16.1753 3.07497C16.1753 2.65205 16.5174 2.31006 16.94 2.31006Z" fill="white" fill-opacity="0.8"/>
<path d="M14.6279 2.31006C15.05 2.31006 15.3931 2.65205 15.3931 3.07497C15.3931 3.49665 15.05 3.83864 14.6279 3.83864C14.2068 3.83864 13.864 3.49665 13.864 3.07497C13.864 2.65205 14.2068 2.31006 14.6279 2.31006Z" fill="white" fill-opacity="0.8"/>
<path d="M14.6279 4.62158C15.05 4.62158 15.3931 4.96358 15.3931 5.38575C15.3931 5.80742 15.05 6.14941 14.6279 6.14941C14.2068 6.14941 13.864 5.80742 13.864 5.38575C13.864 4.96358 14.2068 4.62158 14.6279 4.62158Z" fill="white" fill-opacity="0.8"/>
<path d="M12.3176 4.62158C12.7402 4.62158 13.0819 4.96358 13.0819 5.38575C13.0819 5.80742 12.7402 6.14941 12.3176 6.14941C11.8966 6.14941 11.554 5.80742 11.554 5.38575C11.5538 4.96358 11.8966 4.62158 12.3176 4.62158Z" fill="white" fill-opacity="0.8"/>
<path d="M12.3176 6.93213C12.7402 6.93213 13.0819 7.27412 13.0819 7.69579C13.0819 8.11847 12.7402 8.46071 12.3176 8.46071C11.8966 8.46071 11.554 8.11847 11.554 7.69579C11.5538 7.27425 11.8966 6.93213 12.3176 6.93213Z" fill="white" fill-opacity="0.8"/>
<path d="M10.0071 6.93213C10.4298 6.93213 10.7713 7.27412 10.7713 7.69579C10.7713 8.11847 10.4298 8.46071 10.0071 8.46071C9.58441 8.46071 9.24292 8.11847 9.24292 7.69579C9.24292 7.27425 9.58441 6.93213 10.0071 6.93213Z" fill="white" fill-opacity="0.8"/>
<path d="M10.0071 9.24268C10.4298 9.24268 10.7713 9.58492 10.7713 10.0071C10.7713 10.429 10.4298 10.7708 10.0071 10.7708C9.58441 10.7708 9.24292 10.429 9.24292 10.0071C9.24292 9.58492 9.58441 9.24268 10.0071 9.24268Z" fill="white" fill-opacity="0.8"/>
<path d="M7.69666 4.62158C8.11771 4.62158 8.46033 4.96358 8.46033 5.38575C8.46033 5.80742 8.11771 6.14941 7.69666 6.14941C7.27412 6.14941 6.93237 5.80742 6.93237 5.38575C6.93237 4.96358 7.27412 4.62158 7.69666 4.62158Z" fill="white" fill-opacity="0.8"/>
<path d="M7.69666 6.93213C8.11771 6.93213 8.46033 7.27412 8.46033 7.69579C8.46033 8.11847 8.11771 8.46071 7.69666 8.46071C7.27412 8.46071 6.93237 8.11847 6.93237 7.69579C6.93237 7.27425 7.27412 6.93213 7.69666 6.93213Z" fill="white" fill-opacity="0.8"/>
<path d="M5.38626 2.31006C5.80743 2.31006 6.15043 2.65205 6.15043 3.07497C6.15043 3.49665 5.80743 3.83864 5.38626 3.83864C4.96421 3.83864 4.62109 3.49665 4.62109 3.07497C4.62097 2.65205 4.96421 2.31006 5.38626 2.31006Z" fill="white" fill-opacity="0.8"/>
<path d="M5.38626 4.62158C5.80743 4.62158 6.15043 4.96358 6.15043 5.38575C6.15043 5.80742 5.80743 6.14941 5.38626 6.14941C4.96421 6.14941 4.62109 5.80742 4.62109 5.38575C4.62097 4.96358 4.96421 4.62158 5.38626 4.62158Z" fill="white" fill-opacity="0.8"/>
<path d="M3.07434 0C3.49701 0 3.839 0.341742 3.839 0.763916C3.839 1.18584 3.49701 1.52783 3.07434 1.52783C2.65341 1.52783 2.31055 1.18584 2.31055 0.763916C2.31055 0.341867 2.65341 0 3.07434 0Z" fill="white" fill-opacity="0.8"/>
<path d="M3.07434 2.31006C3.49701 2.31006 3.839 2.65205 3.839 3.07497C3.839 3.49665 3.49701 3.83864 3.07434 3.83864C2.65341 3.83864 2.31055 3.49665 2.31055 3.07497C2.31055 2.65205 2.65341 2.31006 3.07434 2.31006Z" fill="white" fill-opacity="0.8"/>
<path d="M0.764041 0C1.18659 0 1.52783 0.341742 1.52783 0.763916C1.52783 1.18584 1.18647 1.52783 0.764041 1.52783C0.341242 1.52783 0 1.18584 0 0.763916C0 0.341867 0.341367 0 0.764041 0Z" fill="white" fill-opacity="0.8"/>
</svg>
